<svg xmlns="http://www.w3.org/2000/svg" fill="none" viewBox="0 0 128 128"><defs><linearGradient id="markGlow" x1="0" x2="128" y1="128" y2="0" gradientUnits="userSpaceOnUse"><stop stop-color="#833AB4"/><stop offset=".3" stop-color="#C13584"/><stop offset=".6" stop-color="#E1306C"/><stop offset=".8" stop-color="#FD1D1D"/><stop offset="1" stop-color="#FCAF45"/></linearGradient><linearGradient id="markSheen" x1="0" x2="128" y1="0" y2="128" gradientUnits="userSpaceOnUse"><stop stop-color="#fff" stop-opacity=".6"/><stop offset=".4" stop-color="#fff" stop-opacity=".08"/><stop offset="1" stop-color="#fff" stop-opacity=".3"/></linearGradient><linearGradient id="fbBlue" x1="20" x2="108" y1="108" y2="20" gradientUnits="userSpaceOnUse"><stop stop-color="#1877F2"/><stop offset=".6" stop-color="#0866FF"/><stop offset="1" stop-color="#00D2FF"/></linearGradient><filter id="outerGlow" width="160" height="160" x="-16" y="-8" filterUnits="userSpaceOnUse"><feGaussianBlur result="blur" stdDeviation="8"/><feComposite in="SourceGraphic" in2="blur" operator="over"/></filter></defs><rect width="108" height="108" x="10" y="10" fill="#0E1118" rx="32"/><rect width="108" height="108" x="10" y="10" stroke="#232936" stroke-width="2" rx="32"/><rect width="100" height="100" x="14" y="14" fill="url(#markGlow)" rx="28"/><rect width="90" height="90" x="19" y="19" fill="#121622" fill-opacity=".85" rx="23"/><rect width="90" height="90" x="19" y="19" stroke="url(#markSheen)" stroke-width="2" rx="23"/><circle cx="64" cy="64" r="28" fill="none" stroke="url(#markGlow)" stroke-width="7"/><circle cx="64" cy="64" r="18" fill="url(#fbBlue)" fill-opacity=".22"/><circle cx="64" cy="64" r="17" fill="none" stroke="#fff" stroke-opacity=".55" stroke-width="2"/><path fill="#fff" fill-opacity=".2" d="M26 38 C42 26 86 26 102 38 C86 52 42 52 26 38 Z"/><path fill="#fff" fill-opacity=".08" d="M36 86 C50 78 78 78 92 86 C78 92 50 92 36 86 Z"/><circle cx="90" cy="38" r="6.5" fill="#FCAF45"/><circle cx="90" cy="38" r="3" fill="#fff"/></svg>